<svg width="401" height="394" viewBox="0 0 401 394" fill="none" xmlns="http://www.w3.org/2000/svg">
<path d="M0.879887 339.505C0.959962 340.502 1.04004 341.498 1.12011 342.495C8.71856 342.086 16.2852 341.037 23.7531 339.303C53.9503 332.418 80.4261 314.127 102.115 292.816C176.105 215.966 219.831 117.651 263.31 22.3662C266.305 15.5811 269.325 8.66181 272.372 1.60662C271.457 1.2022 270.543 0.797799 269.628 0.393376C266.462 7.38767 263.327 14.2467 260.222 20.9723C215.295 115.375 170.554 213.188 97.917 288.529C76.6351 309.405 51.6491 327.445 22.7496 335.353C15.5878 337.339 8.28646 338.711 0.879887 339.505Z" fill="white"/>
<line x1="272.469" y1="0.697521" x2="342.469" y2="340.698" stroke="white" stroke-width="3"/>
<path d="M339.673 341.582C340.322 341.43 340.971 341.277 341.62 341.125C340.189 334.578 338.715 328.153 337.146 321.655C317.326 244.743 292.368 163.088 230.662 107.688C200.632 80.7096 154.035 73.5175 118.03 91.1428C111.796 93.8855 106.061 96.9205 100.153 100.484C100.482 101.064 100.811 101.644 101.139 102.224C107.171 99.0339 112.973 96.368 119.197 93.9862C155.412 78.7504 197.862 86.6081 226.833 112.307C286.369 165.548 312.807 246.196 334.639 322.298C336.386 328.731 338.047 335.094 339.673 341.582Z" fill="white"/>
<path d="M101.467 102.121C101.058 101.594 100.65 101.067 100.242 100.54C95.5356 103.915 91.5613 107.371 88.3316 111.771C84.5167 116.932 82.3948 123.629 84.015 130.325C85.4929 136.784 89.734 142.304 94.0239 146.608C103.073 155.475 113.754 161.618 124.539 167.175C146.344 178.131 169.216 186.07 192.155 193.151C238.215 207.151 285.208 217.147 332.391 225.677C337.027 226.516 341.913 227.381 346.826 228.27C347.188 228.335 347.955 226.103 349.136 221.575C349.256 220.92 349.376 220.264 349.496 219.608C349.994 214.955 350.052 212.594 349.683 212.527C348.55 212.321 347.309 212.099 345.964 211.859C344.728 211.639 343.686 211.454 342.45 211.236C339.916 210.787 337.599 210.379 335.2 209.956C288.224 201.663 241.488 192.879 195.558 181.096C172.696 175.132 149.863 168.537 128.218 159.333C117.522 154.678 106.948 149.45 98.2493 142.078C89.4312 135.042 84.3375 123.619 91.1376 113.637C93.6879 109.439 97.1618 105.769 101.467 102.121Z" fill="white"/>
<path d="M347.388 218.874C347.191 219.511 346.995 220.148 346.798 220.785C345.656 225.317 345.177 227.611 345.395 227.68C350.465 229.278 354.966 230.931 359.033 232.919C383.968 240.641 356.333 262.088 336.593 274.232C315.305 287.321 292.094 298.044 268.286 306.675C221.886 323.277 174.435 336.876 126.43 348.358C121.178 349.603 115.5 350.911 110.251 352.08C110.396 352.73 110.541 353.381 110.686 354.032C115.944 352.862 121.632 351.551 126.891 350.304C174.97 338.804 222.466 325.193 268.964 308.557C292.847 299.888 316.987 291.923 340.376 281.285C351.986 275.802 363.829 270.037 374.101 260.251C378.916 255.366 385.176 247.682 382.723 237.05C379.725 226.944 372.527 222.715 366.286 219.058C361.085 216.228 355.884 214.217 350.189 212.415C349.944 212.338 348.999 214.488 347.388 218.874Z" fill="white"/>
</svg>
